<svg xmlns="http://www.w3.org/2000/svg" version="1.1" xmlns:xlink="http://www.w3.org/1999/xlink" xmlns:svgjs="http://svgjs.com/svgjs" width="1440" height="560" preserveAspectRatio="none" viewBox="0 0 1440 560"><g mask="url(&quot;#SvgjsMask1013&quot;)" fill="none"><path d="M1158.69 527.72L1206.54 527.72L1206.54 575.57L1158.69 575.57z" stroke="rgba(204, 204, 204, 1)"></path><path d="M155.66 105.61L198.78 105.61L198.78 161.52L155.66 161.52z" stroke="rgba(204, 204, 204, 1)"></path><path d="M791.95 136.97 a42.57 42.57 0 1 0 85.14 0 a42.57 42.57 0 1 0 -85.14 0z" fill="rgba(211, 211, 211, 1)"></path><path d="M1103.79 57.66a15.36 15.36 0 1 0-8.88-29.4z" fill="rgba(236, 82, 66, 1)"></path><path d="M566.52 306.35L578.61 306.35L578.61 318.44L566.52 318.44z" fill="rgba(236, 82, 66, 1)"></path><path d="M4.18 294.44a4.45 4.45 0 1 0-3.1 8.34z" stroke="rgba(211, 211, 211, 1)"></path><path d="M1316.01 193.7L1350.03 193.7L1350.03 246.58L1316.01 246.58z" fill="rgba(204, 204, 204, 1)"></path><path d="M822.83 232.6L822.95 232.6L822.95 256.4L822.83 256.4z" stroke="rgba(211, 211, 211, 1)"></path><path d="M1435.2 482.09L1472.38 482.09L1472.38 527.97L1435.2 527.97z" stroke="rgba(211, 211, 211, 1)"></path><path d="M128.46 275.39 a11.81 11.81 0 1 0 23.62 0 a11.81 11.81 0 1 0 -23.62 0z" fill="rgba(211, 211, 211, 1)"></path><path d="M165.67 393.76a23.34 23.34 0 1 0-42.09 20.17z" stroke="rgba(204, 204, 204, 1)"></path><path d="M963.8 94.83L985.3 94.83L985.3 116.33L963.8 116.33z" stroke="rgba(204, 204, 204, 1)"></path><path d="M1107.88 165.09 a43.04 43.04 0 1 0 86.08 0 a43.04 43.04 0 1 0 -86.08 0z" fill="rgba(236, 82, 66, 1)"></path><path d="M410.81 273.49 a15.17 15.17 0 1 0 30.34 0 a15.17 15.17 0 1 0 -30.34 0z" stroke="rgba(236, 82, 66, 1)"></path><path d="M965.09 363.9L1001.57 363.9L1001.57 408.75L965.09 408.75z" fill="rgba(236, 82, 66, 1)"></path><path d="M1148.81 538.95L1189.42 538.95L1189.42 579.56L1148.81 579.56z" fill="rgba(204, 204, 204, 1)"></path><path d="M695.7 11.47 a44.33 44.33 0 1 0 88.66 0 a44.33 44.33 0 1 0 -88.66 0z" fill="rgba(211, 211, 211, 1)"></path><path d="M563.06 509.64L592.74 509.64L592.74 516.19L563.06 516.19z" stroke="rgba(204, 204, 204, 1)"></path><path d="M741.53 448.68L741.86 448.68L741.86 504.59L741.53 504.59z" stroke="rgba(236, 82, 66, 1)"></path><path d="M720.27 489.57L726.9 489.57L726.9 523.24L720.27 523.24z" fill="rgba(236, 82, 66, 1)"></path><path d="M925.37 121.98L935.93 121.98L935.93 172.67L925.37 172.67z" stroke="rgba(236, 82, 66, 1)"></path><path d="M272.46 234.3L306.77 234.3L306.77 286.04L272.46 286.04z" fill="rgba(236, 82, 66, 1)"></path><path d="M1270.73 465.19 a7.96 7.96 0 1 0 15.92 0 a7.96 7.96 0 1 0 -15.92 0z" stroke="rgba(236, 82, 66, 1)"></path><path d="M1334.21 242.96 a23.75 23.75 0 1 0 47.5 0 a23.75 23.75 0 1 0 -47.5 0z" fill="rgba(236, 82, 66, 1)"></path><path d="M272.3 114.01L297.03 114.01L297.03 138.74L272.3 138.74z" fill="rgba(211, 211, 211, 1)"></path><path d="M789.33 247.55 a0.47 0.47 0 1 0 0.94 0 a0.47 0.47 0 1 0 -0.94 0z" stroke="rgba(236, 82, 66, 1)"></path><path d="M1293.71 52.77 a55.01 55.01 0 1 0 110.02 0 a55.01 55.01 0 1 0 -110.02 0z" stroke="rgba(211, 211, 211, 1)"></path><path d="M417.54 430.59L469.74 430.59L469.74 433.7L417.54 433.7z" fill="rgba(211, 211, 211, 1)"></path><path d="M753.59 118.11 a8.28 8.28 0 1 0 16.56 0 a8.28 8.28 0 1 0 -16.56 0z" stroke="rgba(236, 82, 66, 1)"></path><path d="M1238.64 356.26L1257.61 356.26L1257.61 380.9L1238.64 380.9z" stroke="rgba(211, 211, 211, 1)"></path><path d="M855.1 136.3L866.35 136.3L866.35 145.64L855.1 145.64z" stroke="rgba(236, 82, 66, 1)"></path><path d="M418.22 117.95L465.08 117.95L465.08 164.81L418.22 164.81z" fill="rgba(211, 211, 211, 1)"></path><path d="M207.45 544.28L241.2 544.28L241.2 578.03L207.45 578.03z" stroke="rgba(236, 82, 66, 1)"></path></g><defs><mask id="SvgjsMask1013"><rect width="1440" height="560" fill="#ffffff"></rect></mask></defs></svg>