<svg xmlns="http://www.w3.org/2000/svg" version="1.1" xmlns:xlink="http://www.w3.org/1999/xlink" xmlns:svgjs="http://svgjs.com/svgjs" width="1440" height="560" preserveAspectRatio="none" viewBox="0 0 1440 560"><g mask="url(&quot;#SvgjsMask1024&quot;)" fill="none"><circle r="9.02" cx="761.91" cy="116.14999999999999" filter="url(#SvgjsFilter1025)" fill="rgba(211, 211, 211, 1)"></circle><circle r="4.87" cx="425.08" cy="425.99" filter="url(#SvgjsFilter1025)" fill="rgba(211, 211, 211, 1)"></circle><circle r="7.33" cx="276.02" cy="277.03999999999996" filter="url(#SvgjsFilter1025)" fill="rgba(211, 211, 211, 1)"></circle><circle r="8.48" cx="817.97" cy="434.12" filter="url(#SvgjsFilter1025)" fill="rgba(211, 211, 211, 1)"></circle><circle r="7.28" cx="941.3" cy="476.60999999999996" filter="url(#SvgjsFilter1025)" fill="rgba(211, 211, 211, 1)"></circle><circle r="5.97" cx="762.87" cy="341.75" filter="url(#SvgjsFilter1025)" fill="rgba(211, 211, 211, 1)"></circle><circle r="6.805" cx="618.9749999999999" cy="437.52500000000003" filter="url(#SvgjsFilter1025)" fill="rgba(211, 211, 211, 1)"></circle><circle r="6.085" cx="58.895" cy="230.335" filter="url(#SvgjsFilter1025)" fill="rgba(211, 211, 211, 1)"></circle><circle r="8.455" cx="1394.0449999999998" cy="295.185" filter="url(#SvgjsFilter1025)" fill="rgba(211, 211, 211, 1)"></circle><circle r="4.91" cx="1188.6200000000001" cy="562.93" filter="url(#SvgjsFilter1025)" fill="rgba(211, 211, 211, 1)"></circle><circle r="8.855" cx="1128.335" cy="334.385" filter="url(#SvgjsFilter1025)" fill="rgba(211, 211, 211, 1)"></circle><circle r="5.51" cx="62.33" cy="237.82999999999998" filter="url(#SvgjsFilter1025)" fill="rgba(211, 211, 211, 1)"></circle><circle r="5.405" cx="1323.905" cy="246.01500000000001" filter="url(#SvgjsFilter1025)" fill="rgba(211, 211, 211, 1)"></circle><circle r="4.99" cx="555.42" cy="88.80999999999999" filter="url(#SvgjsFilter1025)" fill="rgba(211, 211, 211, 1)"></circle><circle r="9.03" cx="347.38" cy="89.02" filter="url(#SvgjsFilter1025)" fill="rgba(211, 211, 211, 1)"></circle><circle r="5.435" cx="1412.455" cy="316.185" filter="url(#SvgjsFilter1025)" fill="rgba(211, 211, 211, 1)"></circle><circle r="4.92" cx="446.06" cy="525.77" filter="url(#SvgjsFilter1025)" fill="rgba(211, 211, 211, 1)"></circle><circle r="6.63" cx="765.28" cy="98.41" filter="url(#SvgjsFilter1025)" fill="rgba(211, 211, 211, 1)"></circle><circle r="7.375" cx="189.755" cy="231.895" filter="url(#SvgjsFilter1025)" fill="rgba(211, 211, 211, 1)"></circle><circle r="6.52" cx="228.51000000000002" cy="134.03" filter="url(#SvgjsFilter1025)" fill="rgba(211, 211, 211, 1)"></circle><path d="M408.2 74.2L406.6 91.7 396.7 85.2C395.7 84.5 393.9 84.7 392.7 85.9 392.1 87.4 392.4 89.2 393.3 89.9L406.2 98.7 404.7 115 378.7 96.9C377 95.9 375.2 96.1 374.7 97.6 373.4 98.9 373.6 100.6 375.3 101.6L404 121.5 403 136.2 372.2 150.9 361.3 143.7 364.7 106.7C364.5 106.2 364.2 105.7 364 105.2 363.8 104.7 362.8 103.9 362 103.7 360 103.4 358.8 104.6 359 106.4L355.9 140.1 342.7 130.9 343.8 113.6C344.3 113.4 344.1 112.8 343.8 112.3 343.4 111.3 342.4 110.6 341.1 110.5 339.9 110.5 338.6 111.7 338.1 113.2L337.3 127.2 320.7 115.9C319.7 115.2 318 115.4 316.7 116.6 316.2 118.1 316.4 119.9 317.4 120.6L333 131.2 322.4 136.2C320.8 137 320.6 139 321 140 321.8 141.5 323.5 142.5 325 141.8L338.7 135.3 351.8 144.5 323.5 158.1C322 158.8 321.4 160.3 322.1 161.8 322.9 163.3 324.4 163.8 325.9 163.1L357.2 148.2 368.8 155.6 366 189.9 354.3 195.4 324.9 175.4C323.7 174.1 321.4 174.6 320.9 176 319.6 177.3 320.3 178.8 321.6 180.1L348.3 198.3 333.6 205.3 320.5 196.1C319.5 195.3 317.3 195.8 316.5 196.8S316.2 200 317.4 201.3L327.6 208.2 309.9 216.7C308.4 217.4 308.1 219.4 308.8 220.9 309.3 221.9 311 223 312.5 222.2L330.2 213.8 329.5 226.5C329.5 227.8 330.2 229.3 332.2 229.6 333.4 229.6 335.2 228.2 335.2 226.9L336.3 210.9 350.9 203.9 348.3 236.2C348.6 237.9 349.3 239.4 351.3 239.7 352.5 239.7 354.3 238.3 354.3 237L357 201 368.6 195.5 397.1 214.8 395.6 228.5 364.2 243.5C362.7 244.2 362.2 245.7 362.9 247.2 363.6 248.7 365.4 249.7 366.9 249L395.2 235.5 394.2 251.5 380.5 258C379 258.8 378.5 260.3 379.2 261.8 379.9 263.3 381.4 263.8 382.9 263.1L393.5 258 391.9 276.8C391.9 278 393.4 279.8 394.6 279.8 396.4 279.6 397.9 278.9 397.7 277.1L399.6 257.6 410.7 265.4C412.2 265.9 413.9 265.7 414.7 264.7 415.5 263.7 415.5 262.4 415 261.4 415 261.4 414.8 260.9 414 260.7L399.9 250.6 401 234.6 429.2 253.4C430.4 254.7 432.2 254.5 433.2 252.7 433.5 252 433.7 251.2 433.3 250.2 433 249.7 432.8 249.2 432.5 248.7L401.6 228.1 402.8 215.1 433.7 200.4 445.8 208.9 443.1 243.6C442.9 245.6 444.1 246.9 445.8 246.7 447.3 247.2 448.6 246 448.9 244L451.2 212.5 464.8 221.5 463.5 237C463.5 238.3 464.8 239.5 466.2 240.1 468 239.8 469.5 239.1 469.3 237.4L470.5 225.6 485.1 235.4C486.3 236.7 487.9 235.9 489.1 234.7 489.4 234 489.4 232.7 488.9 231.7 488.9 231.7 488.7 231.2 488.5 230.7L472.9 220.1 485.5 214.1C486.5 213.6 487.6 211.9 486.8 210.4 486.1 208.9 484.1 208.6 483.1 209.1L467.4 216.5 453.8 207.5 484.6 192.8C486.2 192.1 486.4 190.1 485.7 188.6S483.5 186.5 482 187.2L448.1 203.4 437 195.7 439.9 161.4 453 155.2 482.7 175.7C484.2 176.3 486 176 487.2 174.8 487.5 174.1 487.5 172.8 487 171.8 486.8 171.3 486.5 170.8 485.8 170.5L459.1 152.3 473.7 145.3 487.4 154.3C488.3 155.1 490.1 154.8 491.4 153.6 491.9 152.1 491.7 150.4 490.7 149.6L479.8 142.4 496 134.7C497 134.2 497.8 131.9 497.3 130.9 496.6 129.4 494.3 128.6 493.3 129.1L477.1 136.8 478.6 124.3C478.4 123.8 478.1 123.3 477.9 122.8 477.4 121.8 476.4 121 475.7 120.8 473.9 121 472.7 122.2 472.1 123.7L471.1 139.7 456.4 146.7 459 114.4C459.3 112.4 458.1 111.2 456.8 111.1 454.8 110.9 453.6 112.1 453 113.6L450.4 149.6 437.2 155.9 408.8 136.6 409.8 123.1 443.6 106.9C445.1 106.2 445.7 104.7 445 103.2 444.2 101.6 442.7 101.1 441.2 101.8L410.4 116.6 411.9 100.3 427.6 92.8C428.6 92.3 429.4 90.1 428.7 88.6 428 87.1 426 86.8 425 87.3L412.3 93.3 413.9 74.5C413.7 74 413.7 74 413.4 73.5 412.9 72.5 412 71.8 411.2 71.5 409.5 71.7 408.2 72.9 408.2 74.2ZM431.2 158.8L434.1 161.1 433.8 164.3 431.6 192.1 431.2 195.3 428.2 196.8 403.5 208.6 400.4 210.1 397.7 208.3 374.7 192.6 372 190.8 372 187 374.5 159.7 374.6 156 377.6 154.5 402.4 142.7 405.4 141.3 408.4 143.6 431.2 158.8Z" fill="rgba(211, 211, 211, 1)"></path><path d="M319 425.5L298 433.3 299.7 419.9C300 418.5 298.9 416.8 296.9 416.1 295.2 416.4 293.5 417.5 293.7 419.3L291 436 275 442.8 280.5 408C280.3 406.2 279.2 404.5 277.8 404.2 275.5 404 273.8 405.1 274 406.9L268 445.4 243.1 455.1 251.1 425.5 224.1 440 227.9 413.6 264 399C264.5 399.4 264.9 398.9 265.3 398.4 266.1 397.4 266.4 396 265.8 394.7 265.2 393.4 263.3 392.7 261.5 392.9L228.8 406.2 231.9 389 247.5 382.7C248.4 382.6 248.8 382.1 249.2 381.6 249.6 381.1 249.9 379.7 249.3 378.4 248.7 377.1 246.8 376.4 245.5 377L232.8 381.6 235.8 359.4C236.4 357.5 234.9 356.3 233 355.6 231.6 355.3 229.9 356.4 229.8 358.7L226.3 380.5 215.8 372.2C214.3 371 212.1 371.7 211.3 372.7 210.1 374.2 210.3 376 211.8 377.2L225.4 387.9 222.3 405.2 195.3 383.7C193.8 382.5 192 382.7 190.8 384.2 190 385.2 189.8 387.5 191.3 388.7L221.4 412.6 217.6 439 196 417.8 194.9 447.9 173.9 431.2 179.5 393.2C179.7 390.9 178.2 389.7 176.8 389.4 175.4 389.1 173.7 390.3 173 392.2L168.4 426.9 154.8 416.1 156.9 399C157.6 397.1 156.5 395.4 154.2 395.2 152.8 394.9 151.1 396 150.9 398.3L148.8 411.3 131.3 397.4C129.8 396.2 128 396.4 126.8 397.9S125.8 401.2 127.3 402.4L144.8 416.4 132.6 421.4C130.5 422.1 129.8 424 130.4 425.3 131.1 427.5 133 428.2 134.7 427.1L150.8 421.1 164.4 431.9 131.6 444.3C129.9 445.4 129.3 447.3 129.9 448.6 130.6 450.8 132.5 451.5 134.2 450.4L169.9 436.2 190.9 453 161.8 460.9 187.3 477.1 162.5 486.8 132.4 462.9C130.9 461.7 128.7 462.4 127.9 463.4 126.7 464.9 126.9 466.7 128.4 467.9L156 489.8 139.4 496.2 125.9 485.5C124.4 484.3 122.6 484.5 121.4 486 120.6 487 120.4 489.3 121.9 490.5L132.5 498.9 112 507.1C109.8 507.9 109.1 509.8 110.2 511.5 110.8 512.7 112.3 513.9 114 512.8L135 505 133.3 518.4C133 519.8 134.2 521.4 135.6 521.7 137 522 138.2 521.4 138.6 520.9 139 520.4 139.4 519.9 139.3 519L142 502.3 158 495.5 152.5 530.3C152.7 532.1 153.8 533.8 155.2 534.1 156.6 534.4 157.9 533.7 158.7 532.7 159.1 532.2 159.1 532.2 159 531.3L165 492.8 189.9 483.1 181.9 512.8 208.9 498.3 205.1 524.7 169 539.3C167.7 539.9 166.5 541.4 167.2 543.6 167.8 544.9 169.7 545.6 171.5 545.4L204.2 532.1 201.1 549.3 185.5 555.6C183.7 555.8 183 557.7 183.7 559.9 184.3 561.2 186.2 561.9 188 561.7L200.2 556.7 197.3 578.9C196.6 580.8 198.1 582 200 582.7 200.9 582.6 202.2 581.9 202.6 581.4 203 580.9 203.4 580.4 203.3 579.5L206.7 557.7 217.2 566.1C218.7 567.3 220.9 566.6 221.7 565.6L221.7 565.6C222.9 564.1 222.7 562.3 221.2 561.1L207.6 550.3 210.7 533.1 237.7 554.6C239.2 555.8 241 555.6 242.2 554.1S243.2 550.8 241.7 549.6L211.6 525.7 215.4 499.3 237 520.5 238.1 490.3 259.1 507.1 253.5 545.1C253.3 547.4 254.8 548.6 256.2 548.8 257.6 549.1 259.3 548 260 546.1L265.1 511.8 278.2 522.2 276.1 539.3C275.4 541.2 276.5 542.9 278.8 543.1 280.2 543.4 281.9 542.2 282.6 540.3L284.2 526.9 301.7 540.9C303.3 542.1 305.1 541.9 306.2 540.4S307.2 537 305.7 535.9L288.2 521.9 300.4 516.9C301.3 516.8 301.6 516.3 302 515.8 302.8 514.8 302.7 513.9 302.6 513 301.9 510.8 300 510.1 298.3 511.2L282.2 517.2 268.6 506.4 301.4 494C301.8 493.5 302.2 493 302.6 492.5 303.3 491.5 303.2 490.6 303.1 489.7 302.4 487.5 300.5 486.8 298.8 487.9L263.1 502 242.1 485.3 271.2 477.4 245.7 461.2 270.5 451.5 300.6 475.4C302.1 476.6 304.3 475.9 305.1 474.9 306.3 473.4 306.1 471.6 304.6 470.4L277.5 448.9 293.6 442 307.1 452.8C308.6 454 310.4 453.8 311.6 452.3S312.6 449 311.1 447.8L300.5 439.4 321 431.1C321.9 431 322.3 430.5 322.7 430 323.1 429.5 323.4 428.1 322.8 426.8 322.2 425.5 320.7 424.3 319 425.5ZM255.9 475.1L232 481.5 231.2 506.2 213.3 488.6 191.8 500.2 197.7 476.3 177.1 463.2 201 456.8 201.8 432.1 219.2 449.2 241.2 438.1 234.8 461.6 255.9 475.1Z" fill="rgba(211, 211, 211, 1)"></path><path d="M1289.7 80.2L1279.6 93.7 1275.2 84.5C1274.8 83.5 1273.5 82.9 1272 83.2 1270.9 84.1 1270.3 85.5 1271.2 86.5L1276.2 98.1 1268.9 109 1258.3 84.7C1257.5 83.7 1256.1 83.1 1255.1 83.4 1253.5 84.2 1252.9 85.6 1253.8 86.7L1265.5 113.5 1253.7 129.6 1246.8 107.7 1235.6 127.8 1227.3 109.5 1244.2 85.7C1244.7 85.8 1244.7 85.3 1244.8 84.8 1244.9 83.8 1244.5 82.8 1243.6 82.3 1242.7 81.7 1241.2 82 1240.2 82.9L1224.9 104.5 1219.9 92.4 1227.2 82C1227.8 81.6 1227.8 81.1 1227.9 80.7 1227.9 80.2 1227.5 79.2 1226.6 78.6 1225.7 78 1224.2 78.4 1223.7 79.3L1217.5 87.3 1210.4 72.1C1210.1 70.6 1208.6 70.5 1207.1 70.8 1206.1 71.2 1205.5 72.6 1206.3 74.1L1213 89.3 1203 88.2C1201.5 88.1 1200.4 89.4 1200.3 90.4 1200.2 91.8 1201 92.9 1202.5 93L1215.4 94.3 1220.4 106.4 1194.6 103.8C1193.2 103.6 1192.1 104.5 1192 105.9 1191.9 106.9 1192.7 108.4 1194.1 108.6L1222.8 111.5 1231 129.7 1208.8 125 1220.4 144.5 1200.3 142.5 1188.5 116.2C1187.7 114.7 1186.3 114.5 1185.3 114.9 1184.3 115.3 1183.6 116.7 1184 118.1L1195 142 1182.2 140.6 1176.6 129C1176.3 127.5 1174.9 126.9 1173.3 127.7 1172.3 128 1171.7 129.4 1172.5 131L1176.4 140 1159.7 138.3C1158.3 138.2 1157.2 139 1157.1 140.5S1157.8 143 1159.2 143.1L1175.9 144.8 1170.3 152.9C1169.2 154.3 1169.5 155.7 1170.4 156.3 1171.8 157.4 1173.2 157.1 1173.9 155.7L1181.7 145.4 1194.6 146.7 1178.9 167.8C1178.3 169.2 1178.6 170.7 1179.5 171.2 1180.8 172.3 1182.3 172 1182.9 170.6L1199.8 147.3 1219.9 149.3 1204.6 166.1 1227.3 166 1215.5 182.2 1186.9 179.2C1185.5 179.1 1184.4 180.4 1184.3 181.4 1184.1 182.8 1185 183.9 1186.4 184L1212.7 186.7 1204.8 197.5 1191.9 196.2C1190.5 196 1189.4 196.9 1189.3 198.3 1189.2 199.3 1190 200.8 1191.4 200.9L1201.5 202 1191.9 215.5C1190.8 216.8 1191.1 218.3 1192.5 218.9 1193.4 219.5 1194.8 219.6 1195.4 218.2L1205.5 204.8 1209.9 213.9C1210.3 214.9 1211.6 215.5 1212.6 215.2 1213.7 214.8 1214.2 213.9 1214.3 213.4 1214.3 212.9 1214.4 212.4 1213.9 211.9L1208.9 200.3 1216.2 189.5 1226.8 213.7C1227.6 214.8 1229 215.4 1230 215 1231 214.6 1231.6 213.7 1231.7 212.8 1231.8 212.3 1231.8 212.3 1231.3 211.8L1219.6 185 1231.4 168.8 1238.3 190.8 1249.5 170.7 1257.8 188.9 1240.9 212.7C1240.3 213.6 1240.2 215.1 1241.5 216.2 1242.4 216.8 1243.9 216.4 1244.9 215.6L1260.2 194 1265.2 206.1 1257.9 216.4C1256.8 217.3 1257.2 218.8 1258.5 219.9 1259.4 220.4 1260.9 220.1 1261.9 219.2L1267.6 211.1 1274.7 226.3C1275 227.8 1276.5 228 1278 227.6 1278.5 227.2 1279.1 226.3 1279.1 225.8 1279.2 225.3 1279.2 224.9 1278.8 224.3L1272.1 209.2 1282.2 210.2C1283.6 210.4 1284.7 209 1284.8 208.1L1284.8 208.1C1284.9 206.6 1284.1 205.6 1282.6 205.4L1269.7 204.1 1264.7 192 1290.5 194.7C1291.9 194.8 1293 193.9 1293.1 192.5S1292.4 190 1291 189.9L1262.3 187 1254.1 168.7 1276.3 173.4 1264.8 153.9 1284.8 156 1296.6 182.3C1297.4 183.8 1298.8 183.9 1299.8 183.6 1300.8 183.2 1301.5 181.8 1301.1 180.3L1290.5 156.5 1303 157.8 1308.5 169.5C1308.8 171 1310.2 171.6 1311.8 170.8 1312.8 170.4 1313.4 169 1313.1 167.5L1308.7 158.4 1325.4 160.1C1326.8 160.3 1327.9 159.4 1328 158S1327.3 155.5 1325.9 155.3L1309.2 153.6 1314.8 145.5C1315.4 145.1 1315.4 144.6 1315.4 144.1 1315.5 143.2 1315.1 142.7 1314.7 142.1 1313.4 141 1311.9 141.4 1311.2 142.7L1303.4 153 1290.5 151.7 1306.2 130.6C1306.3 130.2 1306.3 129.7 1306.4 129.2 1306.5 128.3 1306 127.7 1305.6 127.2 1304.3 126.1 1302.8 126.4 1302.2 127.8L1285.3 151.2 1265.2 149.1 1280.5 132.4 1257.8 132.4 1269.6 116.3 1298.2 119.2C1299.6 119.4 1300.7 118 1300.8 117.1 1301 115.6 1300.1 114.6 1298.7 114.4L1272.9 111.8 1280.3 101 1293.2 102.3C1294.6 102.4 1295.7 101.6 1295.8 100.1S1295.1 97.7 1293.7 97.5L1283.7 96.5 1293.2 83C1293.8 82.6 1293.8 82.1 1293.9 81.6 1293.9 81.1 1293.5 80.1 1292.6 79.6 1291.7 79 1290.3 78.8 1289.7 80.2ZM1269.9 137.1L1257.4 150.7 1266.8 166.7 1248.4 162.8 1239.5 178.8 1233.6 161.3 1215.3 161.4 1227.7 147.7 1218.3 131.8 1236.2 135.5 1245.6 119.6 1251 137.1 1269.9 137.1Z" fill="rgba(211, 211, 211, 1)"></path><path d="M722.2 367.3L703.5 374.6 705.1 361.2C705.3 359.8 704.2 358.1 702.3 357.5 700.5 357.7 698.8 358.8 698.6 360.2L696.2 377.8 678.7 384.5 683.9 348.8C684.1 346.5 683 344.8 681.2 345 679.3 344.3 677.6 345.5 677.4 347.8L671.8 387.2 656.2 393.7 625.4 369.7 627.2 354.8 666.8 339.5C667.2 339 667.6 338.5 668 338 668.4 337.5 668.7 336.1 668.6 335.2 667.8 333 665.9 332.3 664.2 333.4L628.1 347.4 630.9 329.3 649.1 321.6C649.6 322 650 321.5 650.4 321 651.2 320 651.5 318.6 650.9 317.3 650.2 316 648.3 315.3 646.5 315.5L631.8 321.9 635 299.2C635.2 297.8 634.1 296.1 632.2 295.4 630.4 295.6 628.7 296.8 628.4 298.2L625.6 319.5 615 311.2C613.5 310 611.3 310.8 610.5 311.8 609.3 313.3 609.2 315.6 610.7 316.8L624.3 327.4 621.5 345.5 593.3 323.5C591.7 322.3 590 322.5 588.8 324 587.6 325.5 587.8 327.3 589.3 328.5L620.6 352.9 618.9 368.6 582.4 383.2 570.8 374.1 576.3 333.8C577 331.9 575.3 329.8 573.5 330 571.6 329.3 570.5 330.8 569.8 332.7L564.7 369.4 550.1 358 552.9 339.8C553.2 338.4 551.5 336.4 550.1 336.1S546.6 337.4 546 339.3L544 353.2 526.4 339.4C524.9 338.3 522.7 339 521.5 340.5 520.7 341.5 520.5 343.8 522 345L539.7 358.8 526.3 364.5C525 365.2 523.8 366.7 524.5 368.9 525.1 370.1 527.6 371.2 528.8 370.6L545.8 363.5 560.4 374.9 526.1 388.7C524.4 389.9 523.2 391.4 523.9 393.6 524.5 394.8 526.9 395.9 528.2 395.3L566.4 379.7 578 388.7 572.8 427.7 558 433.1 526.7 408.7C525.2 407.5 523.4 407.8 522.2 409.3 521 410.8 520.9 413.1 522.4 414.3L550.6 436.3 533.7 443.4 520.1 432.8C518.6 431.6 516.8 431.8 515.6 433.3 514.4 434.8 514.6 436.6 516.2 437.8L526.7 446.1 506.7 454C505.5 454.6 504.4 457.1 505 458.4 506.1 460 507.6 461.2 509.3 460.1L530.2 452.1 528 467.4C528.2 469.2 529.3 470.9 530.7 471.1 532.1 471.4 533.4 470.8 534.2 469.8 534.2 469.8 534.6 469.3 534.5 468.4L537.6 448.9 554.5 441.8 549.6 480.2C549 482.1 550.1 483.8 552.4 484 553.3 483.9 554.2 483.8 555 482.7 555.4 482.2 555.8 481.7 556.1 481.2L561.4 439.1 575.4 433.7 606.1 457.8 603.6 474.5 566.7 489.5C564.6 490.2 563.9 492.1 565 493.8 565.2 495.6 567.1 496.3 569.3 495.6L602.7 481.9 600.5 500.4 583.9 507C582.7 507.6 582 509.5 582.2 511.3 583.3 513 584.8 514.2 586.5 513.1L599.2 508.3 596.6 528.2C595.9 530.1 597.4 531.3 599.3 532 600.2 531.9 601.5 531.3 602.3 530.3 602.3 530.3 602.7 529.8 603.1 529.3L605.9 507.9 618.6 517.8C619.6 518.6 621.9 518.7 623 517.2 624.2 515.7 623.5 513.5 622.5 512.7L606.9 500.5 609.1 482 639.9 506C641.4 507.2 643.6 506.5 644.8 505S645.8 501.7 644.2 500.5L610.4 474.1 612.7 458.8 649.2 444.2 662.3 454.5 656.4 495.3C656.6 497.1 657.7 498.8 659.6 499.5 660.5 499.4 661.8 498.8 662.6 497.8 663 497.3 663.4 496.8 663.3 495.9L668.3 459.2 683 470.6 680.7 489.2C680.4 490.6 681.5 492.2 683.4 492.9 685.2 492.7 686.9 491.6 687.2 490.2L689 475.4 705.2 488C706.2 488.8 708.9 488.4 709.7 487.4 710.8 485.9 710.5 483.2 709.5 482.4L693.4 469.8 706.9 465C707.3 464.4 707.7 463.9 708.1 463.4 708.9 462.4 709.1 461 709 460.1 707.9 458.4 706 457.8 704.2 458L687.3 465.1 672.7 453.7 707 439.9C709.2 439.1 709.9 437.2 709.2 435.9 708.5 433.7 706.6 433.1 704.8 433.3L666.6 448.9 653.5 438.7 658.7 399.8 673.1 393.9 706.9 420.3C708.4 421.5 710.2 421.2 711.4 419.7 712.5 418.2 712.3 416.4 710.8 415.2L680 391.2 697.4 384.5 713.1 396.7C714.1 397.5 716.8 397.2 718 395.6 719.1 394.1 718.4 391.9 717.4 391.2L704.8 381.3 724.8 373.4C725.2 372.9 725.2 372.9 725.6 372.4 726.4 371.4 726.7 370 726.5 369.1 725.4 367.4 723.5 366.7 722.2 367.3ZM647.4 434L646.6 438.2 643.1 439.5 613.6 451.4 610.1 452.7 607.1 450.3 582.3 431 579.3 428.7 579.8 425 584.1 393.4 584.6 389.7 588.4 387.9 617.6 376.5 621.5 374.7 624.5 377.1 649.2 396.4 652.2 398.7 651.4 402.9 647.4 434Z" fill="rgba(211, 211, 211, 1)"></path><path d="M1039.2 359.5L1042.6 345.9 1048.9 351.5C1049.5 352.2 1050.8 352.2 1051.8 351.5 1052.4 350.5 1052.4 349.2 1051.4 348.7L1043.8 341.4 1046 330.7 1061.9 346C1062.9 346.5 1064.1 346.6 1064.8 345.9 1065.7 344.8 1065.7 343.6 1064.7 343L1047.1 326.2 1051 310 1063.4 324.6 1065.6 305.6 1077.8 317 1072.4 340.7C1072 340.8 1072.1 341.2 1072.2 341.6 1072.5 342.4 1073.1 343 1074 343.2 1074.8 343.3 1075.9 342.6 1076.4 341.6L1081.2 320.1 1089 327.8 1086.6 338.1C1086.4 338.6 1086.5 339 1086.6 339.4 1086.7 339.8 1087.3 340.4 1088.2 340.6 1089.1 340.7 1090.1 340 1090.3 339.1L1092.4 331 1102.8 340.4C1103.5 341.4 1104.7 341.1 1105.7 340.3 1106.3 339.7 1106.4 338.5 1105.3 337.5L1095.3 328 1103.3 325.6C1104.5 325.2 1104.9 323.9 1104.7 323.1 1104.3 321.9 1103.3 321.4 1102.2 321.8L1091.8 324.9 1084.1 317.2 1104.8 310.9C1105.9 310.6 1106.5 309.6 1106.1 308.5 1105.9 307.7 1104.8 306.8 1103.6 307.1L1080.7 314 1068.5 302.6 1087.1 299.2 1072 287.8 1088 283 1105.5 299.5C1106.6 300.4 1107.8 300 1108.4 299.4 1109.1 298.8 1109.1 297.5 1108.4 296.5L1092.3 281.7 1102.6 278.6 1110.6 285.8C1111.3 286.8 1112.6 286.9 1113.5 285.8 1114.2 285.2 1114.2 283.9 1113.1 283L1107.2 277.2 1120.6 273.2C1121.8 272.9 1122.3 271.9 1121.9 270.7S1120.6 269 1119.5 269.4L1106 273.4 1107.8 265.4C1108.2 264 1107.5 262.9 1106.6 262.8 1105.2 262.4 1104.2 263.1 1104.2 264.4L1101.4 274.8 1091.1 277.9 1096.4 256.7C1096.5 255.4 1095.7 254.4 1094.9 254.2 1093.5 253.8 1092.4 254.5 1092.4 255.8L1086.9 279.2 1070.8 284 1077.2 266.2 1059.7 273.5 1063.6 257.3 1086.6 250.4C1087.8 250.1 1088.2 248.7 1088 247.9 1087.6 246.8 1086.6 246.2 1085.5 246.6L1064.4 252.9 1067 242.1 1077.3 239C1078.5 238.7 1079 237.7 1078.7 236.5 1078.4 235.8 1077.3 234.8 1076.2 235.2L1068.1 237.6 1071.2 224.1C1071.6 222.8 1070.9 221.7 1069.6 221.7 1068.7 221.5 1067.6 221.9 1067.6 223.1L1064.1 236.7 1057.8 231.1C1057.2 230.4 1056 230.4 1055.3 231 1054.7 231.6 1054.5 232.5 1054.6 232.9 1054.7 233.3 1054.8 233.7 1055.3 233.9L1063 241.2 1060.8 251.9 1044.9 236.6C1043.9 236.1 1042.6 236.1 1042 236.7 1041.3 237.3 1041.2 238.2 1041.4 238.9 1041.5 239.3 1041.5 239.3 1042 239.6L1059.6 256.4 1055.7 272.7 1043.4 258 1041.1 277 1029 265.7 1034.4 241.9C1034.5 241 1034.2 239.9 1032.8 239.4 1031.9 239.3 1030.9 240 1030.3 241L1025.5 262.5 1017.8 254.8 1020.1 244.5C1020.6 243.5 1019.9 242.5 1018.5 242.1 1017.6 241.9 1016.6 242.6 1016.1 243.6L1014.3 251.7 1004 242.3C1003.2 241.2 1002.1 241.6 1001.1 242.3 1000.8 242.8 1000.6 243.7 1000.8 244.1 1000.9 244.4 1001 244.8 1001.5 245.1L1011.4 254.6 1003.4 257C1002.2 257.4 1001.8 258.8 1002.1 259.5L1002.1 259.5C1002.4 260.7 1003.4 261.2 1004.5 260.9L1014.9 257.8 1022.6 265.5 1001.9 271.7C1000.8 272 1000.3 273 1000.6 274.2S1001.9 275.9 1003.1 275.5L1026.1 268.6 1038.3 280 1019.7 283.5 1034.8 294.8 1018.7 299.6 1001.2 283.2C1000.1 282.3 999 282.6 998.3 283.2 997.7 283.8 997.6 285.1 998.4 286.1L1014.1 301 1004.1 304 996.1 296.8C995.4 295.8 994.1 295.7 993.2 296.9 992.6 297.5 992.5 298.7 993.3 299.8L999.5 305.4 986.1 309.4C985 309.8 984.5 310.8 984.8 311.9S986.1 313.6 987.3 313.3L1000.7 309.2 998.9 317.3C998.7 317.8 998.8 318.2 998.9 318.5 999.1 319.3 999.6 319.6 1000.1 319.8 1001.5 320.3 1002.5 319.5 1002.6 318.3L1005.3 307.8 1015.6 304.7 1010.3 326C1010.4 326.3 1010.6 326.7 1010.7 327.1 1010.9 327.9 1011.4 328.1 1011.9 328.4 1013.3 328.8 1014.3 328.1 1014.3 326.8L1019.9 303.5 1035.9 298.6 1029.6 316.4 1047 309.1 1043.1 325.3 1020.1 332.2C1019 332.6 1018.6 333.9 1018.8 334.7 1019.1 335.8 1020.1 336.4 1021.3 336L1042 329.8 1039.7 340.5 1029.4 343.6C1028.3 344 1027.7 345 1028.1 346.1S1029.4 347.8 1030.6 347.4L1038.6 345 1035.5 358.5C1035.3 359 1035.4 359.4 1035.5 359.7 1035.6 360.1 1036.2 360.8 1037.1 360.9 1038 361.1 1039.1 360.7 1039.2 359.5ZM1036.3 309.4L1041.5 294.9 1029.1 285.7 1044.5 282.7 1046.2 267.6 1056.4 279.1 1070.5 273.2 1065.2 287.7 1077.6 297 1062.6 299.8 1060.5 315.1 1050.7 303.4 1036.3 309.4Z" fill="rgba(211, 211, 211, 1)"></path><path d="M712.4 491.5L721.8 495 716.8 499.4C716.2 499.9 716.1 500.9 716.6 501.8 717.3 502.3 718.3 502.4 718.9 502L725.6 496.2 734.4 499.5 720.5 511.1C719.7 511.9 719.5 512.9 720.3 513.4 720.8 514.3 721.8 514.5 722.6 513.7L737.9 500.9 745.8 503.6 749.3 522.9 743.7 527.8 723.8 520.3C723.5 520.4 723.2 520.4 722.9 520.5 722.5 520.5 722 521 721.7 521.3 721.2 522.4 721.7 523.3 722.7 523.4L740.9 530.2 733.8 536.1 724.4 532.9C724.4 532.5 724.1 532.6 723.7 532.7 723.1 532.8 722.5 533.2 722.3 533.9 722.1 534.6 722.6 535.5 723.4 536L731 538.5 722.2 545.9C721.7 546.4 721.5 547.4 722 548.3 722.7 548.8 723.7 548.9 724.3 548.5L732.5 541.5 733.7 548.1C733.9 549 734.9 549.5 735.5 549.4 736.5 549.2 737.3 548.4 737.1 547.5L735.6 539 742.7 533.1 745.9 550.8C746 551.7 746.8 552.2 747.7 552.1 748.7 551.9 749.2 551.2 749 550.2L745.5 530.7 751.4 525.4 769.8 532.2 771.1 539.4 755.6 552.6C754.7 553.1 754.7 554.4 755.4 554.9 755.9 555.8 756.8 555.6 757.7 555.2L771.8 543.2 773.5 552.3 766.4 558.1C765.8 558.6 765.7 559.9 766.1 560.5S767.9 561.1 768.8 560.6L774.1 556.1 776.1 567.1C776.3 568.1 777.4 568.5 778.3 568.4 778.9 568.2 779.8 567.4 779.6 566.5L777.6 555.5 784.5 557.8C785.2 558 786.2 557.8 786.6 556.8 786.8 556.1 786.3 554.9 785.6 554.7L776.9 551.7 775.3 542.6 792.7 548.9C793.7 549 794.6 548.8 795.1 547.8 795.3 547.1 794.7 545.9 794 545.7L774.6 538.8 773.3 531.5 788.2 518.8 795.6 521.7 799.1 541.2C799.3 542.1 800 542.7 801 542.5 801.9 542.3 802.7 541.5 802.6 540.6L799.4 522.9 808 525.9 809.6 534.4C809.8 535.4 810.5 535.9 811.4 535.7 812.4 535.6 812.9 534.8 812.7 533.9L811.5 527.3 821.6 531C822.3 531.2 823.5 530.6 823.7 529.9 823.9 528.9 823.7 528 822.7 527.8L812.2 523.9 818.2 518.9C818.7 518.2 818.8 517.2 818.4 516.6 818 516 817.3 515.8 816.7 515.9 816.7 515.9 816.3 516 816.1 516.4L808.4 522.6 799.8 519.6 814.4 506.9C815.3 506.4 815.4 505.4 814.6 504.6 814.2 504.3 813.9 504.1 813.2 504.2 812.9 504.2 812.6 504.3 812.3 504.4L796.3 518.3 789.3 515.7 785.8 496.4 792.3 491 811.1 497.7C812.2 498.2 813 497.7 813.2 496.7 813.7 496 813.2 495.1 812.2 494.6L795.1 488.6 802.2 482.4 810.5 485.5C811.2 485.7 812.1 485.2 812.6 484.5 812.8 483.5 812.6 482.5 811.6 482.4L805.3 479.9 812.9 473.4C813.8 472.9 813.6 471.9 813.1 471 812.7 470.8 812.1 470.6 811.4 470.7 811.4 470.7 811.1 470.8 810.8 470.8L802.6 477.8 801.2 469.9C801.1 469.3 800.3 468.5 799.4 468.6 798.4 468.8 798 469.9 798.1 470.5L799.8 480.3 792.8 486.4 789.3 467.2C789.2 466.3 788.1 465.8 787.2 466S785.7 466.9 785.9 467.8L789.7 488.9 783.7 493.9 765.3 487.1 763.8 478.9 779.6 465.7C780.2 464.9 780.3 463.9 779.8 463.1 779.4 462.8 778.8 462.6 778.1 462.7 777.8 462.8 777.5 462.8 777.2 463.2L763.1 475.2 761.5 466 768.5 459.9C769.1 459.5 769.2 458.5 768.8 457.6 768 457.1 767 456.9 766.4 457.3L760.8 462.3 759 452.2C758.9 451.5 757.8 450.8 757.1 450.9 756.2 451.1 755.4 452.2 755.5 452.8L757.4 462.9 750.7 460.2C750.4 460.2 750.1 460.3 749.7 460.3 749.1 460.5 748.5 460.9 748.3 461.3 748.1 462.3 748.6 463.1 749.4 463.7L758 466.7 759.7 475.8 742.3 469.5C741.2 469 740.3 469.5 740.1 470.2 739.7 471.3 740.2 472.2 740.9 472.7L760.4 479.6 761.8 487.8 746.9 500.5 739.6 497.9 735.8 476.8C735.6 475.9 734.9 475.4 733.9 475.5 733 475.7 732.5 476.5 732.7 477.4L736.1 496.6 727.4 493.3 725.6 483.5C725.5 482.9 724.4 482.1 723.5 482.3 722.5 482.5 722.1 483.5 722.2 484.2L723.6 492 713.5 488.3C713.2 488.4 713.2 488.4 712.9 488.4 712.2 488.6 711.7 489 711.4 489.4 711.3 490.4 711.7 491.3 712.4 491.5ZM762.5 491.5L764.2 490.3 766 490.9 780.9 496.3 782.7 497 783 498.9 785.8 514.3 786.1 516.2 784.7 517.4 772.6 527.8 771.2 529 769.1 528.4 754.5 522.9 752.4 522.3 752.1 520.4 749.3 505 749 503.1 750.7 501.8 762.5 491.5Z" fill="rgba(211, 211, 211, 1)"></path><path d="M682.8 81L674.3 105 665.7 108.9 668.7 100.7C669.2 100 668.6 99.1 667.8 98.6 667.1 98.5 666 98.9 665.9 99.6L661.7 110.7 653.5 114.7 654.4 105.6 663.6 98C663.6 98 663.7 97.7 663.7 97.7 664.1 97.2 664 96.3 663.6 95.7 662.8 95.1 662.1 95 661.3 95.6L654.7 101.2 655.6 92.1 674.9 75.5C674.9 75.5 675.4 75.4 675.4 75.4 675.7 74.9 675.6 74 675.2 73.4 674.6 72.5 673.5 72.5 672.9 73.3L656 87.6 656.7 76.5 664.3 70C664.3 70 664.3 70 664.5 69.8 664.8 69.2 664.9 68.5 664.6 67.9 663.8 67.4 662.8 67.1 662 67.7L657.1 72 657.7 63.9C657.9 62.9 657.2 62.4 656.5 62.2 655.5 62 654.7 62.6 654.6 63.7L653.8 71.7 649.9 66.6C649.1 66.1 648.1 65.8 647.6 66.6 646.8 67.2 646.7 67.9 647.3 68.7L653.7 76.3 652.7 87.3 638.1 70.1C637.8 69.5 636.6 69.5 635.8 70.1 635.4 70.6 635.1 71.6 635.7 72.4L652.3 91.7 651.4 100.9 645.9 94.3C645.3 93.5 644.4 93.6 643.6 94.2 642.9 94.6 642.9 95.7 643.3 96.3L651.1 105.3 650.5 114.6 642.8 109.3 640.8 97.7C640.6 96.8 639.8 96.3 638.9 96.4 638.2 96.3 637.5 97.4 637.6 98.3L639.2 106.7 631.5 101.4 627.2 76.2C627.1 75.3 626.3 74.8 625.4 75 624.5 75.1 624 75.9 624.1 76.8L627.9 98.9 618.9 92.7 617.2 82.9C617 82 616.2 81.4 615.3 81.6 614.4 81.8 613.9 82.5 614 83.4L615 89.9 608.4 85.4C607.6 84.8 606.7 85 606.2 85.8 605.6 86.6 605.8 87.4 606.6 88L613.2 92.6 606.9 93.7C606 93.8 605.5 94.6 605.6 95.5S606.6 97 607.5 96.8L616.8 95.1 626 101.5 604.2 105.4C603.3 105.6 602.8 106.4 602.9 107.3 603.1 108.2 603.9 108.7 604.8 108.6L629.7 104.1 637.3 109.4 628.9 110.9C628 111 627.4 111.8 627.6 112.7 627.8 113.6 628.5 114.2 629.4 114L641 111.9 648.4 117 640.3 120.8 629 116.8C628.3 116.7 627.2 117.2 627.1 117.9 626.8 118.8 627.2 119.5 628 120L636.1 122.9 628 126.7 604 118.1C603 117.8 602.4 118.2 601.8 119 601.5 119.9 602.1 120.8 602.7 121.1L623.8 128.8 613.6 133.4 604.5 130.2C603.7 129.7 602.9 130.3 602.4 131.1 602.3 131.8 602.7 132.8 603.7 133.1L609.6 135.3 602.4 138.9C601.5 139 601.2 140 601.6 141.1 602 141.7 603 142 603.6 141.6L611 138.2 608.7 144.4C608.4 145.4 609 146.2 609.7 146.3 610.5 146.8 611.1 146.5 611.5 146 611.7 145.7 611.7 145.7 611.9 145.4L615.1 136.4 625.3 131.8 617.8 152.7C617.2 153.4 617.8 154.3 618.6 154.8 619.3 154.9 619.9 154.6 620.3 154 620.5 153.8 620.5 153.8 620.5 153.8L629.5 129.6 637.5 125.9 634.6 134C634.3 135 634.7 135.6 635.5 136.1 636.2 136.2 637.1 136.1 637.4 135.6 637.6 135.3 637.6 135.3 637.8 135L641.8 123.7 649.8 120 649.1 128.9 640.2 136.7C639.4 137.3 639.3 138.4 639.7 139.1 640.5 139.6 641.4 139.9 642 139.1L648.6 133.6 648.1 142.6 628.4 159.3C627.7 159.6 627.7 160.8 628.1 161.4 628.8 161.9 629.8 162.2 630.6 161.6L647.6 147.3 646.6 158.3 639.2 164.4C638.4 165 638.4 166.2 639.1 166.7 639.5 167.4 640.5 167.7 641.3 167.1L646.2 162.7 645.6 170.9C645.5 171.6 646.1 172.4 647.1 172.7 647.5 172.6 648.2 172.2 648.5 171.7 648.5 171.7 648.7 171.5 648.9 171.2L649.5 163 653.9 168C654.2 168.6 655.3 168.7 656 168.3 656.2 168.1 656.2 168.1 656.2 168.1 656.7 167.3 656.5 166.4 656 166L649.9 158.6 650.6 147.4 665.2 164.6C666 165.1 666.7 165.2 667.5 164.6 667.5 164.6 667.7 164.4 667.7 164.4 668 163.8 668.1 163.1 667.5 162.3L651.1 142.7 651.9 133.9 657.4 140.5C658.2 141 659.2 141.3 659.7 140.5 660 140.7 660.2 140.4 660.2 140.4 660.5 139.9 660.4 139 660 138.4L652.2 129.5 653.1 120.3 660.5 125.4 662.5 137C662.7 137.9 663.7 138.6 664.6 138.5 665.3 138.1 665.8 137.4 665.9 136.6L664.1 128 671.8 133.3 676.2 158.2C676.4 159.1 677.2 159.7 678.1 159.5 679 159.4 679.5 158.6 679.4 157.7L675.4 135.9 684.6 142.2 686.3 151.6C686.5 152.5 687.3 153 688.1 152.9S689.6 151.9 689.4 151L688.3 144.8 694.9 149.4C695.7 149.9 696.6 149.8 697.1 149 697.6 148.2 697.5 147.3 696.7 146.7L690.1 142.2 696.5 140.8C697 140.7 697.4 140.6 697.6 140.4 697.8 140.1 697.9 139.4 697.8 139 697.7 138.1 696.9 137.5 696 137.7L686.5 139.6 677.3 133.2 699.3 129C699.7 129 700.2 128.9 700.3 128.6 700.5 128.4 700.6 127.6 700.5 127.2 700.4 126.3 699.6 125.8 698.7 125.9L673.6 130.7 666 125.4 674.7 124C675.1 124 675.5 123.4 675.7 123.2 675.9 122.9 676 122.6 676 122.2 675.8 121.3 674.8 120.6 674.1 120.9L662.3 122.8 654.9 117.7 663.2 113.7 674.3 117.9C675 118 675.9 117.8 676.2 117.3 676.4 117.1 676.4 117.1 676.2 116.9 676.7 116.1 676.3 115 675.3 114.7L667.2 111.8 675.4 107.8 699.6 116.8C700.3 116.9 700.9 116.6 701.3 116 701.5 115.8 701.5 115.8 701.5 115.8 701.8 114.8 701.6 113.9 700.6 113.6L679.5 105.9 689.7 101.3 698.8 104.5C699.7 104.8 700.4 104.5 700.7 103.9 700.7 103.9 700.9 103.7 700.9 103.7 701.2 102.7 700.6 101.9 700.1 101.5L693.7 99.5 701.2 96.1C701.3 95.8 701.5 95.5 701.7 95.3 701.9 95 702 94.3 701.9 93.9 701.3 93 700.5 92.5 699.7 93.1L692.3 96.5 694.6 90.3C694.9 89.4 694.3 88.6 693.8 88.2 692.8 87.9 692 88.5 691.4 89.3L688.2 98.4 678.3 103.2 685.8 82.3C686.1 81.3 685.7 80.2 685 80.1 684 79.8 683.1 80 682.8 81Z" fill="rgba(211, 211, 211, 1)"></path><path d="M795.3 163.4L799.7 172.4 793 172.3C792.3 172.2 791.5 172.8 791.2 173.8 791.4 174.7 792 175.5 792.7 175.6L801.6 176 805.7 184.4 787.7 183.3C786.5 183.3 785.8 184 785.9 184.9 785.7 185.8 786.3 186.6 787.5 186.6L807.4 187.7 811.3 195.2 800.6 211.6 793.2 211.3 783.8 192.3C783.5 192.1 783.3 191.9 783 191.7 782.7 191.6 782 191.5 781.6 191.6 780.5 192 780.3 193 780.9 193.8L789.5 211.2 780.3 210.6 775.7 201.9C775.9 201.6 775.6 201.4 775.3 201.2 774.8 200.9 774.1 200.8 773.4 201.2 772.8 201.5 772.6 202.5 772.8 203.4L776.6 210.5 765.1 209.9C764.4 209.8 763.6 210.4 763.4 211.4 763.6 212.3 764.2 213.1 764.9 213.2L775.6 213.7 772 219.3C771.5 220.1 771.9 221.2 772.5 221.5 773.3 222 774.4 222 774.9 221.2L779.6 214 788.8 214.6 779 229.6C778.5 230.4 778.7 231.3 779.5 231.8 780.3 232.3 781.2 232.1 781.7 231.3L792.5 214.7 800.4 214.9 809.3 232.4 805.2 238.6 784.9 237.6C783.9 237.3 783 238.2 783.2 239.1 782.9 240.1 783.7 240.6 784.7 240.9L803.2 241.8 798.1 249.6 789 249C788.2 248.9 787.3 249.8 787.2 250.5S788 252.2 789 252.5L796 252.8 789.9 262.2C789.4 263 789.9 264.1 790.7 264.6 791.2 264.9 792.3 264.9 792.9 264.1L799 254.7 802.4 261.2C802.8 261.8 803.6 262.3 804.6 261.9 805.3 261.5 805.7 260.2 805.3 259.6L801.1 251.5 806.1 243.7 814.5 260.2C815.1 261 815.9 261.5 817 261.1 817.6 260.7 818 259.5 817.7 258.9L808.2 240.5 812.2 234.3 831.8 235.2 835.2 242.4 824.4 259C823.9 259.8 824.1 260.7 824.9 261.2 825.7 261.8 826.8 261.8 827.4 261L837.1 245.9 841.4 254 836.7 261.3C836.2 262.1 836.3 263 837.2 263.5 838 264 838.8 263.8 839.4 263L843 257.4 847.8 267C848.2 267.6 849.5 268 850.1 267.7 850.9 267.1 851.4 266.2 850.8 265.5L845.8 255.4 853.6 255.8C854.5 255.6 855.2 255 855.3 254.3 855.4 253.6 855 253 854.5 252.6 854.5 252.6 854.2 252.5 853.8 252.5L843.9 251.9 839.7 243.8 859 244.5C860 244.7 860.8 244.1 860.8 243 860.7 242.5 860.6 242.1 860 241.7 859.8 241.6 859.5 241.4 859.2 241.2L838 240.4 834.7 233.7 845.4 217.3 853.8 217.8 862.9 235.6C863.4 236.6 864.3 236.9 865.1 236.3 866 236.1 866.3 235.1 865.8 234L857.5 218 866.9 218.3 870.9 226.2C871.2 226.9 872.2 227.1 873.1 226.9 873.9 226.3 874.4 225.5 873.8 224.7L870.9 218.6 880.9 219C881.9 219.3 882.4 218.5 882.6 217.5 882.6 217 882.2 216.4 881.7 216.1 881.7 216.1 881.4 215.9 881.1 215.7L870.4 215.2 874.7 208.5C875.1 208 875.1 206.8 874.3 206.3 873.4 205.8 872.4 206.3 872 206.8L866.6 215.1 857.3 214.8 867.9 198.4C868.5 197.6 868 196.5 867.2 196S865.5 195.7 865 196.5L853.3 214.5 845.6 214 836.8 196.5 841.3 189.5 861.9 190.7C862.8 190.5 863.6 189.9 863.8 188.9 863.7 188.4 863.4 187.8 862.8 187.5 862.6 187.3 862.3 187.1 861.9 187.2L843.4 186.3 848.4 178.5 857.8 178.8C858.5 178.9 859.3 178.3 859.5 177.3 859.3 176.4 858.7 175.6 858 175.5L850.5 175.3 856.1 166.7C856.4 166.2 856.2 164.8 855.6 164.5 854.8 164 853.5 164.2 853.1 164.8L847.6 173.4 844.6 166.8C844.3 166.7 844 166.5 843.8 166.3 843.2 166 842.5 165.9 842.1 166 841.3 166.6 841 167.6 841.2 168.5L845.5 176.6 840.4 184.4 832.1 167.9C831.6 166.8 830.6 166.6 830 166.9 828.9 167.4 828.7 168.4 828.9 169.2L838.3 187.6 833.8 194.6 814.2 193.7 810.6 186.8 822.3 168.8C822.8 168 822.6 167.1 821.8 166.6 821 166.1 820.1 166.2 819.6 167.1L809 183.4 804.9 175 810.3 166.7C810.6 166.2 810.4 164.9 809.6 164.3 808.8 163.8 807.7 164.3 807.3 164.8L803 171.5 798.2 161.9C797.9 161.7 797.9 161.7 797.6 161.6 797.1 161.2 796.4 161.1 795.9 161.2 795.2 161.9 794.9 162.8 795.3 163.4ZM831.7 197.8L833.9 198 834.7 199.7 841.9 213.9 842.7 215.6 841.6 217.2 833.1 230.3 832.1 232 830.2 231.9 814.3 231.1 812.4 231 811.3 229.2 804.4 215.2 803.3 213.3 804.4 211.7 812.9 198.6 814 196.9 816.1 197.2 831.7 197.8Z" fill="rgba(211, 211, 211, 1)"></path><path d="M1243.8 474.7L1231.4 481.3 1231.4 472.8C1231.5 471.9 1230.6 471 1229.4 470.7 1228.3 471 1227.3 471.8 1227.6 472.9L1227.3 483.4 1217.9 489 1218.6 466.9C1218.3 465.8 1217.5 464.9 1216.6 464.8 1215.2 464.9 1214.2 465.7 1214.5 466.8L1213.7 491.1 1199.1 499.1 1201.7 480.1 1186.1 491.2 1186.4 474.5 1207.6 462.6C1208 462.8 1208.2 462.5 1208.4 462.2 1208.8 461.5 1208.9 460.6 1208.4 459.8 1207.9 459.1 1206.7 458.8 1205.6 459.1L1186.4 469.9 1186.9 459 1196.1 453.8C1196.7 453.7 1196.9 453.3 1197.1 453 1197.3 452.6 1197.4 451.8 1196.9 451 1196.4 450.2 1195.2 450 1194.4 450.4L1187 454.3 1187 440.3C1187.3 439.1 1186.3 438.5 1185 438.2 1184.1 438.1 1183.2 438.9 1183.2 440.4L1182.8 454.2 1175.7 449.8C1174.6 449.2 1173.3 449.8 1172.9 450.5 1172.3 451.5 1172.6 452.6 1173.6 453.2L1182.8 458.8 1182.3 469.7 1163.8 458.5C1162.8 457.9 1161.7 458.2 1161.1 459.2 1160.7 459.9 1160.7 461.3 1161.7 462L1182.3 474.4 1182 491.1 1166.9 479.6 1168.6 498.4 1154.3 489.7 1154.8 465.7C1154.7 464.3 1153.7 463.6 1152.8 463.6 1151.9 463.5 1151 464.3 1150.7 465.5L1150.5 487.4 1141.3 481.8 1141.3 471.1C1141.5 469.8 1140.7 468.9 1139.3 468.9 1138.4 468.8 1137.4 469.7 1137.5 471.1L1137.2 479.3 1125.2 472.1C1124.2 471.5 1123.1 471.7 1122.5 472.8S1122.1 474.9 1123.1 475.5L1135.1 482.8 1127.9 486.8C1126.6 487.5 1126.4 488.7 1126.8 489.4 1127.4 490.7 1128.7 491 1129.6 490.2L1139.2 485.2 1148.4 490.8 1129.1 501.1C1128.2 501.9 1127.9 503.2 1128.4 503.9 1129 505.2 1130.2 505.5 1131.2 504.7L1152.2 493.1 1166.6 501.8 1149.1 509 1166.2 517.1 1151.6 525 1131.1 512.6C1130 512 1128.7 512.6 1128.3 513.3 1127.7 514.3 1128 515.4 1129 516L1147.8 527.4 1138 532.7 1128.8 527.1C1127.8 526.5 1126.7 526.8 1126 527.8 1125.6 528.5 1125.7 529.9 1126.7 530.5L1133.9 534.9 1121.9 541.6C1120.6 542.2 1120.3 543.5 1121.1 544.4 1121.6 545.2 1122.6 545.8 1123.6 545L1135.9 538.5 1136 546.9C1135.9 547.8 1136.7 548.8 1137.6 548.8 1138.5 548.9 1139.3 548.4 1139.5 548.1 1139.7 547.7 1139.9 547.4 1139.8 546.9L1140.1 536.3 1149.5 530.8 1148.8 552.8C1149.1 553.9 1149.9 554.9 1150.8 554.9 1151.7 555 1152.4 554.5 1152.8 553.8 1153 553.5 1153 553.5 1152.9 552.9L1153.6 528.6 1168.3 520.6 1165.6 539.6 1181.3 528.5 1181 545.2 1159.7 557.1C1159 557.6 1158.4 558.6 1159 559.9 1159.4 560.7 1160.7 560.9 1161.8 560.7L1181 549.8 1180.4 560.8 1171.2 565.9C1170.1 566.2 1169.8 567.4 1170.5 568.7 1170.9 569.5 1172.2 569.8 1173.3 569.5L1180.4 565.4 1180.4 579.4C1180.1 580.6 1181.1 581.3 1182.3 581.5 1182.9 581.4 1183.6 580.9 1183.8 580.6 1184.1 580.3 1184.3 579.9 1184.1 579.4L1184.5 565.6 1191.7 569.9C1192.7 570.5 1194 569.9 1194.5 569.3L1194.5 569.3C1195.1 568.2 1194.8 567.1 1193.8 566.5L1184.6 560.9 1185.1 550 1203.6 561.2C1204.6 561.8 1205.7 561.6 1206.3 560.5S1206.7 558.4 1205.6 557.8L1185.1 545.3 1185.4 528.7 1200.4 540.1 1198.7 521.3 1213.1 530 1212.6 554C1212.6 555.5 1213.7 556.1 1214.6 556.2 1215.4 556.2 1216.4 555.4 1216.7 554.2L1217.2 532.5 1226.1 537.9 1226.1 548.7C1225.8 549.9 1226.7 550.9 1228.1 550.8 1229 550.9 1229.9 550.1 1230.2 548.8L1230.2 540.4 1242.2 547.7C1243.2 548.3 1244.3 548 1244.9 547S1245.3 544.9 1244.2 544.2L1232.3 537 1239.4 532.9C1240 532.8 1240.2 532.4 1240.4 532.1 1240.8 531.4 1240.7 530.8 1240.5 530.3 1239.9 529 1238.7 528.7 1237.7 529.5L1228.2 534.5 1218.9 528.9 1238.3 518.6C1238.5 518.3 1238.7 517.9 1238.9 517.6 1239.3 516.9 1239.2 516.4 1239 515.8 1238.4 514.5 1237.2 514.2 1236.2 515L1215.2 526.6 1200.8 517.9 1218.3 510.7 1201.1 502.7 1215.8 494.7 1236.3 507.2C1237.3 507.8 1238.6 507.2 1239.1 506.5 1239.7 505.5 1239.4 504.4 1238.4 503.7L1219.9 492.5 1229.3 487 1238.6 492.6C1239.6 493.2 1240.7 493 1241.3 491.9S1241.7 489.8 1240.6 489.2L1233.5 484.8 1245.5 478.1C1246 478 1246.3 477.6 1246.5 477.3 1246.7 476.9 1246.7 476.1 1246.3 475.3 1245.8 474.5 1244.8 473.9 1243.8 474.7ZM1208.6 510.5L1194.3 516.3 1195.7 531.7 1183.2 522.2 1170.8 531.1 1172.6 515.8 1158.8 509.3 1173.1 503.4 1171.6 488.1 1183.8 497.3 1196.5 488.7 1194.4 503.7 1208.6 510.5Z" fill="rgba(211, 211, 211, 1)"></path><path d="M334 506.1L360.6 505.9 377.3 522.7 354.4 528.8 331.5 515.4C331.5 515.4 331.2 515.3 331.2 515.3 330.6 515.1 329.8 515.6 329.3 516.1 328.8 517 329.1 518 330.1 518.3L350.1 530 339 533 330.1 527.9C330.1 527.9 329.8 527.8 329.8 527.8 329.2 527.7 328.4 528.1 327.9 528.7 327.4 529.5 327.8 530.6 328.7 530.8L334.7 534.4 326.5 536.6C325.8 536.7 325.1 537.8 325.3 538.5 325.3 539.6 326.6 539.9 327.3 539.7L335.5 537.6 331.9 543.6C331.3 544.5 331.7 545.6 332.6 545.8 333.5 546.4 334.5 546 334.8 545.1L339.8 536.2 350.8 533.5 339.1 553.5C338.6 554.4 339 555.5 339.9 555.7 340.7 556.3 341.8 555.9 342.1 555L355.5 532.1 378.4 526 372.1 549.2 349 562.5C348.2 562.9 348 563.9 348.4 564.7 348.9 565.4 349.8 565.7 350.6 565.2L371 553.5 368 564.6 359.4 569.6C358.6 570 358.3 571 358.8 571.7 359.2 572.5 360.2 572.8 360.9 572.3L366.8 568.9 364.5 577.6C363.9 578.4 364.7 579.3 365.6 579.5 366.6 579.8 367.3 579.3 367.6 578.4L369.7 570.4 373.1 576.3C373.6 577 374.5 577.3 375.3 576.8S376.3 575.5 375.9 574.7L370.9 566.1 373.9 554.9 385.6 575.3C386.1 576.1 387 576.4 387.8 575.9 388.6 575.5 388.8 574.5 388.4 573.7L375.1 550.6 381.2 527.7 397.9 544.5 397.9 570.3C398 571.3 398.8 571.9 399.8 572.2 400.8 572.1 401.3 571.3 401.6 570.3L401.5 547.1 409.6 555.3 409.5 565.5C409.6 566.5 410.4 567.1 411.3 567.3 412.3 567.3 412.9 566.4 413.1 565.8L413 558.8 419 564.7C419.5 565.2 420.8 565.5 421.3 564.7 421.9 563.9 422.1 562.9 421.3 562.4L415.2 556.4 422.2 556.3C423.2 556.3 423.8 555.4 424 554.8 423.8 554.1 423.4 553.3 422.8 553.2 422.8 553.2 422.4 553.1 422.4 553.1L412.2 553 404.1 544.8 427.3 544.8C428.3 544.7 428.9 543.9 429.1 543.3 428.9 542.6 428.5 541.8 427.9 541.6 427.9 541.6 427.5 541.5 427.5 541.5L401 541.7 384.3 524.9 407.1 518.8 430 532.3C430.9 532.8 432 532.4 432.2 531.5 432.8 530.7 432.4 529.6 431.5 529.3L411.4 517.6 422.5 514.7 431.4 519.7C432.3 520.3 433.4 519.9 433.6 519 434.2 518.1 433.8 517 432.9 516.8L426.9 513.2 435.1 511.1C435.8 510.9 436.4 509.8 436.3 509.1 436.1 508.4 435.6 507.9 435 507.7 434.7 507.6 434.4 507.6 434 507.8L425.8 509.9 429.4 503.9C429.9 503.1 429.6 502 428.6 501.7 428.6 501.7 428.3 501.6 428.3 501.6 427.7 501.5 426.9 501.9 426.4 502.5L421.4 511.4 410.3 514.4 422 494.3C422.6 493.5 422.2 492.4 421.3 492.1 421.3 492.1 421 492 421 492 420.3 491.9 419.6 492.3 419.1 492.9L405.6 515.8 382.8 521.9 388.9 499 412.1 485.7C412.9 485.2 413.1 484.3 412.7 483.5 412.2 482.7 411.3 482.5 410.5 482.9L390.2 494.4 393.2 483.2 401.8 478.3C402.6 477.8 402.8 476.9 402.4 476.1S401 475.1 400.2 475.5L394.3 478.9 396.5 470.9C396.7 470 396.3 469.2 395.4 468.9 394.4 468.7 393.7 469.1 393.4 470L391.2 478.1 387.9 472.2C387.6 471.8 387.4 471.4 386.8 471.2S385.8 471.3 385.4 471.5C384.6 472 384.4 472.9 384.8 473.7L389.8 482.3 386.8 493.4 375 473.1C374.8 472.7 374.6 472.3 374 472.1 373.7 472 373 472.2 372.6 472.4 371.8 472.8 371.5 473.8 372 474.6L385.3 497.7 379.2 520.6 362.5 503.8 362.3 477.3C362.2 476.6 361.7 475.8 361.1 475.6 361.1 475.6 360.8 475.5 360.8 475.5 359.8 475.6 359.2 476.4 359.1 477L359.1 500.3 351 492.1 351.1 481.9C351 481.2 350.5 480.4 349.9 480.2 349.9 480.2 349.6 480.1 349.6 480.1 348.6 480.2 348 481 347.9 481.7L348 488.6 342 482.7C341.6 482.6 341.4 482.2 341.1 482.2 340.5 482 339.8 482.1 339.3 482.7 338.8 483.5 338.5 484.4 339.4 485L345.4 490.9 338.4 491C337.4 491.1 336.8 491.9 336.7 492.6 336.7 493.6 337.6 494.1 338.2 494.3L348.4 494.4 356.5 502.5 333.3 502.6C332.3 502.7 331.7 503.5 331.6 504.1 332.2 505.3 333 506.2 334 506.1Z" fill="rgba(211, 211, 211, 1)"></path></g><defs><mask id="SvgjsMask1024"><rect width="1440" height="560" fill="#ffffff"></rect></mask><filter id="SvgjsFilter1025"><feGaussianBlur stdDeviation="1"></feGaussianBlur></filter></defs></svg>